{
	"asset":{
		"generator":"Khronos glTF Blender I/O v3.6.27",
		"version":"2.0"
	},
	"extensionsUsed":[
		"KHR_materials_specular",
		"KHR_materials_ior"
	],
	"scene":0,
	"scenes":[
		{
			"name":"Scene",
			"nodes":[
				0
			]
		}
	],
	"nodes":[
		{
			"mesh":0,
			"name":"uploads_files_2619168_BOOK+FINAL (1)",
			"rotation":[
				0.7071068286895752,
				0,
				0,
				0.7071068286895752
			],
			"translation":[
				3.089078426361084,
				0,
				6.728266716003418
			]
		}
	],
	"materials":[
		{
			"doubleSided":true,
			"extensions":{
				"KHR_materials_specular":{
					"specularColorFactor":[
						0,
						0,
						0
					]
				},
				"KHR_materials_ior":{
					"ior":1.4500000476837158
				}
			},
			"name":"lambert4SG",
			"pbrMetallicRoughness":{
				"baseColorTexture":{
					"index":0
				},
				"metallicFactor":0
			}
		}
	],
	"meshes":[
		{
			"name":"uploads_files_2619168_BOOK+FINAL (1)",
			"primitives":[
				{
					"attributes":{
						"POSITION":0,
						"NORMAL":1,
						"TEXCOORD_0":2
					},
					"indices":3,
					"material":0
				}
			]
		}
	],
	"textures":[
		{
			"sampler":0,
			"source":0
		}
	],
	"images":[
		{
			"bufferView":4,
			"mimeType":"image/jpeg",
			"name":"book"
		}
	],
	"accessors":[
		{
			"bufferView":0,
			"componentType":5126,
			"count":247,
			"max":[
				0.605006992816925,
				-0.3304460048675537,
				0.5826230049133301
			],
			"min":[
				-8.721233367919922,
				-15.012080192565918,
				-0.4426639974117279
			],
			"type":"VEC3"
		},
		{
			"bufferView":1,
			"componentType":5126,
			"count":247,
			"type":"VEC3"
		},
		{
			"bufferView":2,
			"componentType":5126,
			"count":247,
			"type":"VEC2"
		},
		{
			"bufferView":3,
			"componentType":5123,
			"count":948,
			"type":"SCALAR"
		}
	],
	"bufferViews":[
		{
			"buffer":0,
			"byteLength":2964,
			"byteOffset":0,
			"target":34962
		},
		{
			"buffer":0,
			"byteLength":2964,
			"byteOffset":2964,
			"target":34962
		},
		{
			"buffer":0,
			"byteLength":1976,
			"byteOffset":5928,
			"target":34962
		},
		{
			"buffer":0,
			"byteLength":1896,
			"byteOffset":7904,
			"target":34963
		},
		{
			"buffer":0,
			"byteLength":429280,
			"byteOffset":9800
		}
	],
	"samplers":[
		{
			"magFilter":9729,
			"minFilter":9987
		}
	],
	"buffers":[
		{
			"byteLength":439080,
			"uri":"data:application/octet-stream;base64,"
		}
	]
}
